<svg xmlns="http://www.w3.org/2000/svg" width="258.75" viewBox="0 0 258.75 150" height="150" version="1.0"><defs><clipPath id="a"><path d="M 0 0.0742188 L 258.5 0.0742188 L 258.5 149.925781 L 0 149.925781 Z M 0 0.0742188"/></clipPath></defs><g clip-path="url(#a)"><path fill="#FE5A04" d="M 256.148438 76.925781 C 256.34375 77.878906 254.390625 78.351562 251.015625 80.199219 C 246.765625 82.484375 240.152344 81.335938 236.703125 85.113281 C 236.453125 85.363281 236.28125 85.660156 236.195312 86.003906 C 236.105469 86.347656 236.113281 86.691406 236.210938 87.03125 C 236.441406 87.515625 236.785156 87.902344 237.238281 88.191406 C 239.394531 89.832031 253.335938 97.34375 251.054688 100.882812 C 249.257812 103.695312 243.765625 102.574219 241.003906 102.65625 L 226.097656 103.128906 C 218.429688 103.375 227.75 114.148438 229.394531 116.929688 C 231.332031 120.195312 230.863281 121.320312 226.621094 120.953125 C 221.160156 120.480469 215.730469 119.792969 210.265625 119.351562 C 207.804688 119.148438 204.773438 117.515625 202.332031 118.488281 C 198.59375 119.96875 199.5 125.746094 199.746094 128.832031 C 199.886719 130.722656 201.367188 136.015625 198.429688 136.457031 C 195.21875 136.960938 191.109375 134.628906 188.070312 133.726562 C 185.464844 132.949219 182.816406 132.261719 180.1875 131.511719 C 177.886719 130.855469 175.394531 129.734375 173 130.722656 C 168.339844 132.640625 166.839844 140.683594 165.351562 144.839844 C 162.816406 151.878906 155.085938 141.9375 152.128906 140.109375 C 149.171875 138.28125 146.289062 136.136719 142.890625 135.78125 C 138.785156 135.359375 135.304688 138.355469 132.480469 140.960938 C 130.601562 142.695312 128.765625 144.480469 126.957031 146.285156 C 125.675781 147.578125 123.660156 150.902344 121.496094 149.878906 C 120.757812 149.457031 120.140625 148.898438 119.648438 148.203125 C 117.59375 145.753906 115.695312 143.28125 113.785156 140.746094 C 112.390625 138.886719 110.828125 136.539062 108.507812 135.75 C 104.496094 134.375 99.78125 137.542969 96.488281 139.472656 C 93.808594 141.042969 91.167969 142.707031 88.347656 144.019531 C 87.320312 144.492188 85.265625 146.070312 84.074219 145.457031 C 82.882812 144.839844 83.160156 142.304688 83.046875 141.136719 C 82.953125 140.167969 82.75 139.222656 82.449219 138.296875 C 82.148438 137.371094 81.753906 136.492188 81.261719 135.652344 C 80.769531 134.8125 80.195312 134.035156 79.535156 133.320312 C 78.875 132.605469 78.148438 131.96875 77.351562 131.410156 C 73.972656 129.070312 69.628906 129.253906 65.8125 130.167969 C 60.679688 131.386719 55.605469 132.753906 50.515625 134.046875 C 48.585938 134.539062 47.261719 133.941406 47.597656 131.808594 C 47.886719 129.984375 48.296875 128.191406 48.820312 126.421875 C 49.40625 124.460938 50.042969 122.53125 50.648438 120.574219 C 51.078125 119.175781 51.789062 117.648438 49.878906 117.042969 C 49.132812 116.867188 48.386719 116.835938 47.628906 116.960938 C 43.050781 117.382812 38.453125 117.585938 33.851562 117.699219 C 30.867188 117.773438 24.367188 120.183594 21.78125 118.078125 C 19.726562 116.398438 25.816406 111.996094 26.820312 110.898438 C 28.382812 109.253906 29.824219 107.507812 31.144531 105.664062 C 32.601562 103.539062 32.445312 101.488281 29.960938 100.289062 C 26.535156 98.625 22.550781 98.964844 18.875 98.460938 C 16.535156 98.144531 14.121094 98.78125 11.769531 98.757812 C 10.53125 98.84375 9.332031 98.65625 8.175781 98.195312 C 5.980469 97.066406 8.175781 95.722656 9.378906 94.878906 C 12.058594 93.054688 14.800781 91.308594 17.457031 89.453125 C 19.410156 88.089844 22.078125 87.503906 23.617188 85.636719 C 25.539062 83.367188 22.449219 81.386719 20.660156 80.503906 C 15.96875 78.054688 10.824219 77.027344 5.785156 75.488281 C 4.152344 74.976562 1.585938 74.730469 0.652344 73.109375 C 2.890625 70.5 6.546875 70.6875 9.65625 70.296875 C 15.1875 69.488281 20.457031 67.839844 25.464844 65.351562 C 26.125 65.117188 26.652344 64.710938 27.046875 64.128906 C 28.402344 61.636719 20.351562 57.972656 18.761719 56.875 C 15.867188 54.925781 12.765625 53.304688 9.941406 51.230469 C 8.207031 49.949219 8.824219 49.179688 10.589844 48.554688 C 14.019531 47.40625 18.679688 48.011719 22.304688 47.703125 C 26.945312 47.300781 31.644531 47.527344 36.265625 46.859375 C 38.585938 46.53125 40.371094 46.460938 38.484375 44.121094 C 37.457031 42.871094 35.925781 42.070312 34.992188 40.734375 C 33.445312 38.53125 32.296875 36.136719 31.542969 33.554688 C 31.183594 32.3125 31.070312 30.894531 32.25 30.035156 C 33.023438 29.550781 33.867188 29.289062 34.777344 29.242188 C 42.425781 28.359375 50.453125 29.960938 57.925781 31.398438 C 58.472656 31.550781 59.023438 31.578125 59.582031 31.480469 C 61.757812 30.925781 60.320312 28.074219 60.238281 26.707031 C 60.203125 24.195312 60.292969 21.691406 60.515625 19.1875 C 60.996094 5.847656 79.578125 18.324219 85.460938 19.546875 C 86.539062 19.855469 87.628906 19.890625 88.726562 19.648438 C 92.214844 18.5625 93.859375 13.554688 95.195312 10.578125 C 101.035156 -2.757812 116.238281 19.527344 127.019531 10.382812 C 130.480469 7.449219 136.554688 -3.785156 141.585938 1.4375 C 144.390625 4.351562 145.960938 8.320312 148.558594 11.421875 C 156.214844 20.582031 167.148438 5.265625 175.949219 4.628906 C 180.535156 4.289062 180.476562 5.652344 181.777344 10.160156 C 183.207031 15.113281 182.804688 22.472656 189.753906 21.046875 C 194.097656 20.140625 198.234375 18.550781 202.535156 17.527344 C 204.917969 16.980469 216.394531 11.101562 214.917969 17.453125 C 214.300781 20.113281 213.890625 22.820312 213.183594 25.476562 C 212.710938 27.324219 211.335938 28.90625 210.957031 30.78125 C 209.929688 35.914062 236.621094 32.835938 238.816406 32.742188 C 239.382812 32.667969 239.925781 32.742188 240.449219 32.96875 C 241.929688 33.769531 240.5 35.441406 239.8125 36.210938 C 237.421875 38.878906 234.535156 41.0625 232.0625 43.660156 C 229.589844 46.253906 227.023438 49.191406 232.238281 49.816406 L 245.328125 51.375 C 248.632812 51.777344 255.675781 50.789062 258.027344 53.425781 C 259.050781 54.554688 248.785156 59.378906 248.007812 59.757812 C 245.605469 60.886719 236.835938 63.78125 236.910156 67.085938 C 237.050781 72.757812 250.160156 72 253.191406 74.195312 C 255.078125 75.570312 256.015625 76.328125 256.148438 76.925781 Z M 256.148438 76.925781"/></g></svg>